<svg width="117" height="33" viewBox="0 0 117 33" fill="none" xmlns="http://www.w3.org/2000/svg">
<path d="M17 33C26.3888 33 34 25.6127 34 16.5C34 7.3873 26.3888 0 17 0C7.61116 0 0 7.3873 0 16.5C0 25.6127 7.61116 33 17 33Z" fill="url(#paint0_linear_5862_556)"/>
<path d="M20.4358 8.25H13.5642C12.2216 8.25172 10.9346 8.77013 9.98523 9.69155C9.03589 10.613 8.50178 11.8622 8.5 13.1653V19.8347C8.50178 21.1378 9.03589 22.387 9.98523 23.3084C10.9346 24.2299 12.2216 24.7483 13.5642 24.75H20.4358C21.7785 24.7488 23.066 24.2306 24.0154 23.3091C24.9649 22.3875 25.4988 21.138 25.5 19.8347V13.1653C25.4982 11.8622 24.9641 10.613 24.0148 9.69155C23.0654 8.77013 21.7784 8.25172 20.4358 8.25ZM23.7911 19.8347C23.7911 20.6984 23.4376 21.5268 22.8083 22.1375C22.1791 22.7482 21.3257 23.0913 20.4358 23.0913H13.5642C12.6743 23.0913 11.8209 22.7482 11.1917 22.1375C10.5624 21.5268 10.2089 20.6984 10.2089 19.8347V13.1653C10.2089 12.3016 10.5624 11.4732 11.1917 10.8625C11.8209 10.2518 12.6743 9.90868 13.5642 9.90868H20.4358C21.3257 9.90868 22.1791 10.2518 22.8083 10.8625C23.4376 11.4732 23.7911 12.3016 23.7911 13.1653V19.8347Z" fill="white"/>
<path d="M17.0014 12.2334C16.1315 12.233 15.2809 12.483 14.5574 12.9518C13.8339 13.4207 13.2699 14.0873 12.9367 14.8673C12.6036 15.6473 12.5163 16.5057 12.686 17.3339C12.8556 18.162 13.2744 18.9228 13.8896 19.5198C14.5048 20.1169 15.2885 20.5235 16.1418 20.6881C16.9951 20.8527 17.8795 20.768 18.6831 20.4447C19.4868 20.1213 20.1736 19.5739 20.6566 18.8717C21.1397 18.1694 21.3973 17.3439 21.3968 16.4995C21.3956 15.3684 20.9322 14.284 20.1081 13.4842C19.2841 12.6844 18.1668 12.2345 17.0014 12.2334ZM17.0014 19.1048C16.4705 19.1048 15.9516 18.952 15.5102 18.6657C15.0687 18.3795 14.7247 17.9726 14.5215 17.4965C14.3184 17.0205 14.2652 16.4966 14.3688 15.9913C14.4724 15.4859 14.728 15.0217 15.1034 14.6573C15.4788 14.293 15.9571 14.0448 16.4778 13.9443C16.9985 13.8438 17.5382 13.8954 18.0286 14.0926C18.5191 14.2898 18.9383 14.6237 19.2333 15.0521C19.5282 15.4805 19.6856 15.9842 19.6856 16.4995C19.6856 17.1905 19.4028 17.8531 18.8995 18.3417C18.3961 18.8303 17.7133 19.1048 17.0014 19.1048Z" fill="white"/>
<path d="M21.423 13.289C22.0234 13.289 22.5102 12.8166 22.5102 12.2338C22.5102 11.6511 22.0234 11.1787 21.423 11.1787C20.8227 11.1787 20.3359 11.6511 20.3359 12.2338C20.3359 12.8166 20.8227 13.289 21.423 13.289Z" fill="white"/>
<path d="M58.5 33C67.6127 33 75 25.6127 75 16.5C75 7.3873 67.6127 0 58.5 0C49.3873 0 42 7.3873 42 16.5C42 25.6127 49.3873 33 58.5 33Z" fill="#4065D6"/>
<path d="M66.1131 21.2154C65.7267 21.2697 63.8487 21.2154 63.751 21.2154C63.2655 21.2203 62.7976 21.0339 62.4484 20.6965C62.0511 20.3144 61.6929 19.8932 61.3129 19.4959C61.1976 19.3748 61.0735 19.2623 60.9417 19.1594C60.6312 18.9228 60.3251 18.977 60.1796 19.3418C60.0657 19.7371 59.9873 20.1418 59.9452 20.551C59.9384 20.7234 59.8635 20.8861 59.7369 21.0033C59.6103 21.1206 59.4424 21.1828 59.27 21.1763C59.0138 21.1893 58.7576 21.1958 58.5036 21.1893C57.5796 21.1845 56.6698 20.9614 55.8484 20.538C54.9617 20.0425 54.1888 19.3665 53.5796 18.5537C52.605 17.2667 51.7627 15.8847 51.0656 14.4287C51.0287 14.3549 50.297 12.7982 50.2796 12.7266C50.2343 12.6246 50.23 12.509 50.2676 12.4039C50.3052 12.2988 50.3818 12.2122 50.4816 12.1621C50.6118 12.1122 53.0239 12.1621 53.0629 12.1621C53.2425 12.1604 53.418 12.2161 53.5637 12.3212C53.7094 12.4263 53.8177 12.5751 53.8727 12.7461C54.3188 13.8834 54.928 14.9497 55.6812 15.9115C55.7863 16.0411 55.9099 16.1545 56.0481 16.248C56.0838 16.2824 56.1279 16.3067 56.176 16.3182C56.2242 16.3298 56.2745 16.3284 56.3219 16.314C56.3693 16.2996 56.4119 16.2728 56.4455 16.2364C56.479 16.2 56.5023 16.1553 56.5127 16.1069C56.6082 15.793 56.6643 15.4685 56.6799 15.1408C56.6929 14.4895 56.6799 14.0553 56.643 13.4039C56.6561 13.182 56.5812 12.9638 56.4345 12.7968C56.2877 12.6297 56.081 12.5273 55.8593 12.5116C55.6682 12.4791 55.6421 12.3228 55.7746 12.1664C56.0286 11.843 56.3803 11.7908 56.7624 11.7713C57.3399 11.7387 57.9196 11.7713 58.4993 11.7713H58.6252C58.8797 11.7707 59.1336 11.7961 59.3829 11.8473C59.5286 11.8772 59.6609 11.9533 59.7599 12.0644C59.8588 12.1755 59.9193 12.3156 59.9321 12.4639C59.9614 12.6279 59.9745 12.7944 59.9712 12.961C59.956 13.671 59.9213 14.3809 59.9126 15.093C59.9074 15.3743 59.9329 15.6553 59.9886 15.931C60.0733 16.3088 60.3316 16.4043 60.5965 16.1286C60.9266 15.7743 61.2292 15.3955 61.5018 14.9953C61.992 14.2667 62.3957 13.4835 62.7046 12.6614C62.8718 12.2403 62.9998 12.1469 63.4536 12.1469H66.0133C66.166 12.1444 66.3182 12.1648 66.4648 12.2077C66.5166 12.2215 66.565 12.2458 66.6069 12.279C66.6489 12.3123 66.6836 12.3538 66.7088 12.4011C66.7341 12.4483 66.7493 12.5002 66.7537 12.5536C66.758 12.607 66.7513 12.6607 66.7341 12.7114C66.5844 13.256 66.3275 13.7653 65.9785 14.2094C65.4575 14.9454 64.9104 15.664 64.3763 16.3805C64.3087 16.4742 64.2471 16.5721 64.1918 16.6735C63.992 17.0339 64.0072 17.238 64.296 17.542C64.7606 18.0196 65.2577 18.469 65.705 18.9597C66.0348 19.3172 66.3327 19.7029 66.5951 20.1125C66.9251 20.6422 66.7232 21.1285 66.1131 21.2154Z" fill="white"/>
<path d="M100 33C109.389 33 117 25.6127 117 16.5C117 7.3873 109.389 0 100 0C90.6112 0 83 7.3873 83 16.5C83 25.6127 90.6112 33 100 33Z" fill="#039BE5"/>
<path d="M90.7825 16.1425L107.173 10.0087C107.934 9.74192 108.598 10.1888 108.352 11.3053L108.353 11.3039L105.563 24.0653C105.356 24.97 104.802 25.19 104.027 24.7638L99.7769 21.7237L97.727 23.6404C97.5003 23.8604 97.309 24.046 96.8699 24.046L97.1716 19.8482L105.048 12.9415C105.391 12.6487 104.972 12.4837 104.52 12.7752L94.786 18.7234L90.5898 17.4529C89.6789 17.1724 89.659 16.5688 90.7825 16.1425Z" fill="white"/>
<defs>
<linearGradient id="paint0_linear_5862_556" x1="17" y1="32.848" x2="17" y2="2.23618" gradientUnits="userSpaceOnUse">
<stop stop-color="#E09B3D"/>
<stop offset="0.24" stop-color="#C74C4D"/>
<stop offset="0.65" stop-color="#C21975"/>
<stop offset="1" stop-color="#7024C4"/>
</linearGradient>
</defs>
</svg>
